# xmcd
# 
# Track frame offsets:
#     150
#     20697
#     37630
# 
# Disc length: 752
# 
# Revision: 3
# Processed by: cddbd v1.5.2PL0 Copyright (c) Steve Scherf et al.
# Submitted via: fre:ac v1.0.17
# 
DISCID=1602ee03
DTITLE=Shawn Mullins - Lullaby
DYEAR=1998
DGENRE=Alt. Rock
TTITLE0=Lullaby
TTITLE1=The Gulf of Mexico
TTITLE2=Lately
EXTD=
EXTT0=
EXTT1=
EXTT2=
PLAYORDER=
